<?xml version="1.0" encoding="iso-8859-1"?>
<!-- Generator: Adobe Illustrator 19.0.0, SVG Export Plug-In . SVG Version: 6.00 Build 0)  -->
<svg xmlns="http://www.w3.org/2000/svg" xmlns:xlink="http://www.w3.org/1999/xlink" version="1.1" id="Capa_1" x="0px" y="0px" viewBox="0 0 512 512" style="enable-background:new 0 0 512 512;" xml:space="preserve" width="512px" height="512px">
<g>
	<g>
		<path d="M53.333,0c-5.888,0-10.667,4.779-10.667,10.667v490.667c0,5.888,4.779,10.667,10.667,10.667S64,507.221,64,501.333V10.667    C64,4.779,59.221,0,53.333,0z" fill="#FFFFFF"/>
	</g>
</g>
<g>
	<g>
		<path d="M501.333,448H10.667C4.779,448,0,452.779,0,458.667s4.779,10.667,10.667,10.667h490.667    c5.888,0,10.667-4.779,10.667-10.667S507.221,448,501.333,448z" fill="#FFFFFF"/>
	</g>
</g>
<g>
	<g>
		<path d="M160,256c-29.397,0-53.333,23.936-53.333,53.333s23.936,53.333,53.333,53.333s53.333-23.936,53.333-53.333    S189.397,256,160,256z" fill="#FFFFFF"/>
	</g>
</g>
<g>
	<g>
		<path d="M288,128c-29.397,0-53.333,23.936-53.333,53.333s23.936,53.333,53.333,53.333s53.333-23.936,53.333-53.333    C341.333,151.936,317.397,128,288,128z" fill="#FFFFFF"/>
	</g>
</g>
<g>
	<g>
		<path d="M437.333,42.667C407.936,42.667,384,66.603,384,96s23.936,53.333,53.333,53.333S490.667,125.397,490.667,96    S466.731,42.667,437.333,42.667z" fill="#FFFFFF"/>
	</g>
</g>
<g>
	<g>
		<path d="M160,384c-5.888,0-10.667,4.779-10.667,10.667V416c0,5.888,4.779,10.667,10.667,10.667s10.667-4.779,10.667-10.667    v-21.333C170.667,388.779,165.888,384,160,384z" fill="#FFFFFF"/>
	</g>
</g>
<g>
	<g>
		<path d="M288,256c-5.888,0-10.667,4.779-10.667,10.667V416c0,5.888,4.779,10.667,10.667,10.667s10.667-4.779,10.667-10.667    V266.667C298.667,260.779,293.888,256,288,256z" fill="#FFFFFF"/>
	</g>
</g>
<g>
	<g>
		<path d="M437.333,170.667c-5.888,0-10.667,4.779-10.667,10.667V416c0,5.888,4.779,10.667,10.667,10.667    c5.888,0,10.667-4.779,10.667-10.667V181.333C448,175.445,443.221,170.667,437.333,170.667z" fill="#FFFFFF"/>
	</g>
</g>
<g>
	<g>
		<path d="M263.531,205.803c-4.16-4.16-10.923-4.16-15.083,0l-64,64c-4.16,4.16-4.16,10.923,0,15.083    c2.091,2.069,4.821,3.115,7.552,3.115s5.461-1.045,7.531-3.115l64-64C267.691,216.725,267.691,209.963,263.531,205.803z" fill="#FFFFFF"/>
	</g>
</g>
<g>
	<g>
		<path d="M403.52,111.424c-3.243-4.907-9.877-6.251-14.784-2.965l-64,42.667c-4.907,3.264-6.229,9.877-2.965,14.784    c2.069,3.093,5.44,4.757,8.896,4.757c2.048,0,4.096-0.576,5.888-1.792l64-42.667C405.461,122.944,406.784,116.331,403.52,111.424z    " fill="#FFFFFF"/>
	</g>
</g>
<g>
</g>
<g>
</g>
<g>
</g>
<g>
</g>
<g>
</g>
<g>
</g>
<g>
</g>
<g>
</g>
<g>
</g>
<g>
</g>
<g>
</g>
<g>
</g>
<g>
</g>
<g>
</g>
<g>
</g>
</svg>
