<svg xmlns="http://www.w3.org/2000/svg" viewBox="0 0 16 16" fill="#fff"><path style="line-height:normal;text-indent:0;text-align:start;text-decoration-line:none;text-decoration-style:solid;text-decoration-color:#000000;text-transform:none;block-progression:tb;isolation:auto;mix-blend-mode:normal" d="M6.75 0a.5.5 0 0 0-.496.445l-.178 1.57c-.326.106-.642.236-.947.393l-1.237-.984a.5.5 0 0 0-.666.037L1.46 3.228a.5.5 0 0 0-.038.664l.986 1.24c-.156.306-.287.622-.392.948l-1.573.174a.5.5 0 0 0-.443.5V9.25a.5.5 0 0 0 .443.498l1.57.176c.106.326.238.642.395.947l-.986 1.237a.5.5 0 0 0 .037.666l1.767 1.768a.5.5 0 0 0 .666.036l1.236-.984c.304.156.62.287.946.392l.178 1.57A.5.5 0 0 0 6.75 16h2.5a.5.5 0 0 0 .496-.443l.178-1.57c.326-.106.642-.236.947-.393l1.237.984a.5.5 0 0 0 .666-.037l1.768-1.767a.5.5 0 0 0 .038-.666l-.986-1.236c.156-.304.287-.62.392-.946l1.573-.176A.5.5 0 0 0 16 9.25V6.752a.5.5 0 0 0-.443-.498l-1.57-.176c-.106-.326-.238-.642-.395-.947l.986-1.237a.5.5 0 0 0-.037-.664l-1.767-1.77a.5.5 0 0 0-.666-.036l-1.236.984c-.304-.156-.62-.287-.946-.392L9.746.446A.5.5 0 0 0 9.25 0h-2.5zm.445 1h1.608l.16 1.416a.5.5 0 0 0 .37.428c.48.124.94.314 1.368.566a.5.5 0 0 0 .568-.04l1.113-.886L13.52 3.62l-.887 1.114a.5.5 0 0 0-.04.565c.252.426.443.888.568 1.368a.5.5 0 0 0 .428.37l1.414.16v1.607l-1.414.16a.5.5 0 0 0-.428.37c-.124.48-.317.94-.568 1.368a.5.5 0 0 0 .04.565l.888 1.115-1.137 1.135-1.112-.887a.5.5 0 0 0-.567-.038c-.426.252-.886.443-1.366.568a.5.5 0 0 0-.37.428L8.803 15H7.196l-.16-1.414a.5.5 0 0 0-.37-.428c-.48-.124-.94-.315-1.368-.566a.5.5 0 0 0-.568.04l-1.113.886-1.138-1.135.887-1.115a.5.5 0 0 0 .04-.565c-.252-.427-.443-.887-.568-1.367a.5.5 0 0 0-.428-.37L1 8.805v-1.61l1.414-.16a.5.5 0 0 0 .428-.37c.124-.48.317-.94.568-1.367a.5.5 0 0 0-.04-.566L2.48 3.62 3.62 2.483l1.112.887a.5.5 0 0 0 .567.04c.426-.252.886-.445 1.366-.57a.5.5 0 0 0 .37-.426L7.197 1zM8 4C5.797 4 4 5.797 4 8c0 2.203 1.797 4 4 4 2.203 0 4-1.797 4-4 0-2.203-1.797-4-4-4zm0 1c1.663 0 3 1.337 3 3s-1.337 3-3 3-3-1.337-3-3 1.337-3 3-3z" color="#000" font-family="sans-serif" white-space="normal" overflow="visible" solid-color="#000000"/></svg>
